<svg width="20" height="20" viewBox="0 0 20 20" fill="none" xmlns="http://www.w3.org/2000/svg">
<path id="Layer 2" d="M14.2417 19.9916C13.9765 19.9916 13.7221 19.8862 13.5346 19.6987C13.3471 19.5112 13.2417 19.2568 13.2417 18.9916V16.3916C13.2728 16.0925 13.2408 15.7903 13.1478 15.5043C13.0547 15.2184 12.9028 14.9552 12.7017 14.7316C12.5772 14.5966 12.4923 14.4299 12.4563 14.2498C12.4203 14.0697 12.4346 13.8832 12.4976 13.7106C12.5606 13.5381 12.6699 13.3863 12.8135 13.2718C12.9571 13.1573 13.1295 13.0846 13.3117 13.0616C15.7517 12.7716 18.0017 11.9916 18.0017 7.7616C18.0025 6.97168 17.7693 6.19921 17.3317 5.5416C16.9279 4.93623 16.7804 4.19547 16.9217 3.4816C17.0118 3.01592 17.0118 2.53728 16.9217 2.0716C16.1729 2.32478 15.4679 2.69248 14.8317 3.1616C14.7114 3.24702 14.5737 3.30476 14.4285 3.33069C14.2833 3.35663 14.1341 3.35011 13.9917 3.3116C12.187 2.80166 10.2764 2.80166 8.4717 3.3116C8.32929 3.35011 8.18012 3.35663 8.0349 3.33069C7.88967 3.30476 7.75198 3.24702 7.6317 3.1616C6.99164 2.68704 6.27913 2.31897 5.5217 2.0716C5.4266 2.53679 5.4266 3.01641 5.5217 3.4816C5.65278 4.20445 5.49866 4.94998 5.0917 5.5616C4.65596 6.22382 4.4231 6.99888 4.4217 7.7916C4.4217 11.6816 6.3017 12.7216 9.1217 13.0816C9.30623 13.1045 9.48071 13.1784 9.62557 13.295C9.77042 13.4116 9.87989 13.5662 9.9417 13.7416C9.99984 13.9118 10.011 14.0945 9.97407 14.2704C9.93711 14.4464 9.85338 14.6092 9.7317 14.7416C9.5372 14.9495 9.38791 15.1955 9.29324 15.464C9.19858 15.7325 9.1606 16.0177 9.1817 16.3016V18.9916C9.1817 19.2568 9.07634 19.5112 8.88881 19.6987C8.70127 19.8862 8.44692 19.9916 8.1817 19.9916C7.91648 19.9916 7.66213 19.8862 7.47459 19.6987C7.28706 19.5112 7.1817 19.2568 7.1817 18.9916V18.4216C6.19906 18.5346 5.20373 18.4029 4.28428 18.0383C3.36483 17.6737 2.54979 17.0874 1.9117 16.3316C1.5837 15.9681 1.19018 15.6695 0.751699 15.4516C0.624317 15.4188 0.504648 15.3612 0.399526 15.2821C0.294404 15.203 0.205886 15.104 0.139028 14.9907C0.0721701 14.8774 0.0282802 14.7521 0.00986455 14.6218C-0.00855112 14.4916 -0.00113179 14.359 0.0316987 14.2316C0.0645292 14.1042 0.122128 13.9846 0.201206 13.8794C0.280285 13.7743 0.379294 13.6858 0.492582 13.6189C0.605869 13.5521 0.731216 13.5082 0.861466 13.4898C0.991715 13.4714 1.12432 13.4788 1.2517 13.5116C2.02095 13.7918 2.7083 14.2592 3.2517 14.8716C4.2517 15.8716 5.2517 16.7516 7.1517 16.3916C7.11829 15.8547 7.19661 15.3167 7.3817 14.8116C5.3217 14.2916 2.3817 12.8116 2.3817 7.8116C2.37906 6.62723 2.72701 5.46858 3.3817 4.4816C3.5033 4.29941 3.54987 4.0773 3.5117 3.8616C3.30963 2.78218 3.42424 1.66734 3.8417 0.651602C3.89842 0.516167 3.98427 0.394884 4.09316 0.296371C4.20204 0.197858 4.33128 0.124532 4.4717 0.0816019C4.8117 -0.0183981 6.0317 -0.218398 8.3417 1.2816C10.2117 0.831606 12.1617 0.831606 14.0317 1.2816C16.3417 -0.218398 17.5617 -0.0283981 17.8917 0.0816019C18.0321 0.124532 18.1614 0.197858 18.2702 0.296371C18.3791 0.394884 18.465 0.516167 18.5217 0.651602C18.94 1.67064 19.0546 2.78891 18.8517 3.8716C18.8312 3.96915 18.8304 4.06981 18.8493 4.16768C18.8682 4.26555 18.9064 4.35867 18.9617 4.4416C19.6183 5.43141 19.9663 6.59383 19.9617 7.7816C19.9617 12.8516 17.0417 14.3216 14.9617 14.7816C15.1449 15.3182 15.2197 15.8859 15.1817 16.4516V18.9916C15.1822 19.2467 15.0851 19.4924 14.9103 19.6783C14.7356 19.8642 14.4964 19.9763 14.2417 19.9916Z" fill="white"/>
</svg>
