<svg width="41" height="40" viewBox="0 0 41 40" fill="none" xmlns="http://www.w3.org/2000/svg">
<g id="Icon-Image-UIHUT">
<path id="Subtract" fill-rule="evenodd" clip-rule="evenodd" d="M3.83398 10C3.83398 6.31811 6.81875 3.33334 10.5007 3.33334H30.5007C34.1826 3.33334 37.1673 6.31811 37.1673 10V20.7484L33.4231 18.2976C30.5323 16.4055 26.7483 16.6065 24.0743 18.7943L15.344 25.9373C13.5144 27.4343 10.9254 27.5718 8.94745 26.2772L3.83398 22.9302V10ZM32.0539 20.3894L37.1673 23.7363V30C37.1673 33.6819 34.1826 36.6667 30.5007 36.6667H10.5007C6.81875 36.6667 3.83398 33.6819 3.83398 30V25.9181L7.5783 28.369C10.4691 30.2611 14.2531 30.0601 16.9271 27.8722L25.6574 20.7292C27.487 19.2323 30.076 19.0947 32.0539 20.3894ZM14.6673 18.3333C16.9685 18.3333 18.834 16.4679 18.834 14.1667C18.834 11.8655 16.9685 10 14.6673 10C12.3661 10 10.5007 11.8655 10.5007 14.1667C10.5007 16.4679 12.3661 18.3333 14.6673 18.3333Z" fill="#6D6F78"/>
</g>
</svg>
