<svg width="41" height="40" viewBox="0 0 41 40" fill="none" xmlns="http://www.w3.org/2000/svg">
<g id="Frame">
<g id="Group">
<g id="Layer 2">
<path id="Vector" d="M36.75 3.75H4.25C2.86929 3.75 1.75 4.86929 1.75 6.25V33.75C1.75 35.1307 2.86929 36.25 4.25 36.25H36.75C38.1307 36.25 39.25 35.1307 39.25 33.75V6.25C39.25 4.86929 38.1307 3.75 36.75 3.75Z" fill="#2171EC" fill-opacity="0.24"/>
<path id="Vector_2" d="M11.75 15C13.8211 15 15.5 13.3211 15.5 11.25C15.5 9.17893 13.8211 7.5 11.75 7.5C9.67893 7.5 8 9.17893 8 11.25C8 13.3211 9.67893 15 11.75 15Z" fill="#2171EC"/>
<path id="Vector_3" d="M39.25 24.5246V33.7496C39.25 34.4127 38.9866 35.0485 38.5178 35.5174C38.0489 35.9862 37.413 36.2496 36.75 36.2496H4.25C3.58696 36.2496 2.95107 35.9862 2.48223 35.5174C2.01339 35.0485 1.75 34.4127 1.75 33.7496V26.4871L9.8375 21.4871C10.0517 21.3537 10.3013 21.2883 10.5534 21.2995C10.8056 21.3106 11.0484 21.3978 11.25 21.5496L15.7375 24.9121L27.2625 16.5371C27.4789 16.3748 27.742 16.2871 28.0125 16.2871C28.283 16.2871 28.5461 16.3748 28.7625 16.5371L35.5 21.6746L38.7625 24.1746L39.25 24.5246Z" fill="#2171EC"/>
</g>
</g>
</g>
</svg>
