<svg width="25" height="25" viewBox="0 0 25 25" fill="none" xmlns="http://www.w3.org/2000/svg">
<g id="Group">
<path id="Vector" d="M24.1311 7.06849C24.0763 5.791 23.8754 4.91281 23.5874 4.15177C23.2905 3.34398 22.8336 2.62079 22.2352 2.01957C21.6503 1.409 20.9422 0.934544 20.1655 0.634051C19.421 0.33816 18.5712 0.131507 17.3286 0.0752407C16.0767 0.01409 15.6792 0 12.5041 0C9.32895 0 8.93153 0.01409 7.68427 0.0704501C6.44167 0.12681 5.58739 0.333558 4.84733 0.62926C4.06136 0.934544 3.35789 1.40421 2.77307 2.01957C2.17916 2.62074 1.71787 3.34873 1.42535 4.14716C1.13753 4.91281 0.936559 5.7863 0.881782 7.0637C0.822345 8.35073 0.808594 8.7593 0.808594 12.0235C0.808594 15.2877 0.822345 15.6963 0.877122 16.9785C0.931945 18.256 1.13305 19.1342 1.42092 19.8952C1.71787 20.703 2.17916 21.4262 2.77307 22.0274C3.35789 22.638 4.06602 23.1124 4.84267 23.4129C5.58735 23.7088 6.43701 23.9155 7.67984 23.9717C8.92687 24.0283 9.32451 24.0422 12.4997 24.0422C15.6748 24.0422 16.0722 24.0283 17.3195 23.9717C18.5621 23.9154 19.4164 23.7089 20.1564 23.4129C20.9337 23.104 21.6396 22.6315 22.2289 22.0257C22.8182 21.4199 23.2778 20.6943 23.5784 19.8952C23.866 19.1296 24.0672 18.2559 24.122 16.9785C24.1768 15.6963 24.1905 15.2877 24.1905 12.0235C24.1905 8.7593 24.1858 8.35069 24.1311 7.06849ZM22.0251 16.8845C21.9747 18.0587 21.7829 18.6928 21.623 19.1155C21.23 20.1628 20.4214 20.9941 19.4026 21.3981C18.9914 21.5625 18.3703 21.7597 17.2325 21.8113C15.999 21.8678 15.6291 21.8817 12.5088 21.8817C9.38838 21.8817 9.01381 21.8678 7.78473 21.8113C6.64259 21.7597 6.02584 21.5625 5.61467 21.3981C5.10769 21.2055 4.64622 20.9002 4.2716 20.501C3.88328 20.1112 3.58632 19.6415 3.39892 19.1203C3.23902 18.6975 3.04719 18.0587 2.99707 16.8893C2.94206 15.6212 2.92854 15.2407 2.92854 12.0328C2.92854 8.82495 2.94206 8.43987 2.99707 7.17656C3.04719 6.0024 3.23902 5.36834 3.39892 4.94564C3.58632 4.42422 3.88328 3.9499 4.27626 3.56468C4.65527 3.16546 5.11213 2.86018 5.61933 2.66776C6.0305 2.50337 6.65191 2.30611 7.78939 2.2544C9.0229 2.19804 9.39304 2.18395 12.5132 2.18395C15.6382 2.18395 16.0081 2.19804 17.2372 2.2544C18.3793 2.30616 18.9961 2.50333 19.4073 2.66771C19.9142 2.86018 20.3758 3.16546 20.7503 3.56468C21.1387 3.95455 21.4356 4.42422 21.623 4.94564C21.7829 5.36834 21.9747 6.00695 22.025 7.17656C22.0799 8.44466 22.0936 8.82495 22.0936 12.0328C22.0936 15.2407 22.0799 15.6164 22.0251 16.8845Z" fill="white"/>
<path id="Vector_2" d="M12.5037 5.84714C9.18706 5.84714 6.49609 8.61339 6.49609 12.0233C6.49609 15.4331 9.18706 18.1994 12.5037 18.1994C15.8205 18.1994 18.5114 15.4331 18.5114 12.0233C18.5114 8.61339 15.8205 5.84714 12.5037 5.84714ZM12.5037 16.0295C10.352 16.0295 8.60667 14.2355 8.60667 12.0233C8.60667 9.81104 10.352 8.01701 12.5037 8.01701C14.6556 8.01701 16.4007 9.81104 16.4007 12.0233C16.4007 14.2355 14.6555 16.0295 12.5037 16.0295ZM20.1516 5.60292C20.1516 6.39919 19.5236 7.0448 18.7489 7.0448C17.9744 7.0448 17.3464 6.39919 17.3464 5.60292C17.3464 4.80655 17.9744 4.16113 18.7489 4.16113C19.5236 4.16113 20.1516 4.8065 20.1516 5.60292Z" fill="white"/>
</g>
</svg>
