<svg width="20" height="20" viewBox="0 0 20 20" fill="none" xmlns="http://www.w3.org/2000/svg">
<path id="Vector" d="M19.2 19.5999V12.5679C19.2 9.1119 18.456 6.4719 14.424 6.4719C12.48 6.4719 11.184 7.5279 10.656 8.5359H10.608V6.7839H6.792V19.5999H10.776V13.2399C10.776 11.5599 11.088 9.9519 13.152 9.9519C15.192 9.9519 15.216 11.8479 15.216 13.3359V19.5759H19.2V19.5999ZM0.312 6.7839H4.296V19.5999H0.312V6.7839ZM2.304 0.399902C1.032 0.399902 0 1.4319 0 2.7039C0 3.9759 1.032 5.0319 2.304 5.0319C3.576 5.0319 4.608 3.9759 4.608 2.7039C4.608 1.4319 3.576 0.399902 2.304 0.399902Z" fill="white"/>
</svg>
