<svg width="64" height="64" viewBox="0 0 64 64" fill="none" xmlns="http://www.w3.org/2000/svg">
<g id="Frame 1000005069">
<path id="Vector" d="M22.4751 50.1774L12.9269 55.3856C12.3777 55.6918 11.8638 56.0575 11.3945 56.476C17.1551 61.345 24.4565 64.0117 31.9991 64.0015C39.7927 64.0015 46.933 61.212 52.4841 56.5823C51.9701 56.1403 51.405 55.7617 50.8008 55.4544L40.5764 50.3428C39.9287 50.019 39.384 49.5212 39.0033 48.9053C38.6226 48.2893 38.4209 47.5795 38.4209 46.8554V42.8439C38.7083 42.5166 39.0367 42.0964 39.3881 41.6001C40.7677 39.6395 41.8395 37.4796 42.5664 35.1952C43.8778 34.7907 44.8439 33.5795 44.8439 32.1401V27.8581C44.8439 26.9162 44.4249 26.0745 43.774 25.4852V19.2953C43.774 19.2953 45.0456 9.6626 32.0003 9.6626C18.9551 9.6626 20.2266 19.2953 20.2266 19.2953V25.4852C19.8916 25.7834 19.6232 26.1488 19.4389 26.5577C19.2545 26.9665 19.1584 27.4096 19.1567 27.8581V32.1401C19.1567 33.2679 19.7496 34.2606 20.6372 34.8341C21.7071 39.4917 24.5086 42.8439 24.5086 42.8439V46.7564C24.5077 47.4566 24.3184 48.1436 23.9607 48.7455C23.6029 49.3474 23.0898 49.842 22.4751 50.1774Z" fill="#455A64"/>
<path id="Vector_2" d="M32.5472 0.00476522C14.8771 -0.297124 0.306658 13.783 0.00476837 31.4532C-0.166705 41.4723 4.29884 50.4771 11.4089 56.4654C11.8738 56.051 12.3829 55.689 12.9268 55.3858L22.475 50.1776C23.09 49.8421 23.6032 49.3471 23.9608 48.7447C24.3185 48.1423 24.5072 47.4547 24.5073 46.7542V42.8417C24.5073 42.8417 21.7046 39.4895 20.6359 34.832C20.1836 34.5425 19.8111 34.1442 19.5525 33.6735C19.2938 33.2029 19.1573 32.6749 19.1554 32.1379V27.8559C19.1554 26.914 19.5745 26.0723 20.2253 25.483V19.2931C20.2253 19.2931 18.9538 9.6604 31.999 9.6604C45.0443 9.6604 43.7727 19.2931 43.7727 19.2931V25.483C44.4248 26.0723 44.8426 26.914 44.8426 27.8559V32.1379C44.8426 33.5773 43.8766 34.7885 42.5652 35.193C41.8382 37.4774 40.7664 39.6374 39.3869 41.5979C39.0355 42.0942 38.707 42.5144 38.4196 42.8417V46.8532C38.4196 48.33 39.254 49.6813 40.5751 50.3406L50.7995 55.4522C51.4017 55.7594 51.9652 56.1372 52.478 56.5777C59.3732 50.8273 63.8278 42.2295 63.9933 32.5473C64.2976 14.8771 50.2187 0.306655 32.5472 0.00476522Z" fill="#ECEFF1"/>
</g>
</svg>
