<svg width="24" height="24" viewBox="0 0 24 24" fill="none" xmlns="http://www.w3.org/2000/svg">
<path id="Vector" d="M12 1C7.35315 1 1 4.51221 1 12C1 19.2972 7.11063 23 12 23C20.3886 23 23 15.6508 23 12C23 6.6126 18.8772 1 12 1ZM9.44921 2.03504C8.30158 3.01378 7.34882 4.63346 6.73386 6.64291C5.93701 6.17087 5.20512 5.58622 4.55551 4.9063C5.89803 3.49882 7.59567 2.51142 9.44921 2.03504ZM4.08346 5.43465C4.81102 6.19252 5.63819 6.8378 6.53898 7.34882C6.20118 8.66102 6.00197 10.1161 5.97598 11.6449H1.7189C1.79685 9.3626 2.62835 7.18425 4.08346 5.43465ZM4.08346 18.5654C2.62402 16.8157 1.79685 14.6374 1.7189 12.3551H5.97598C6.00197 13.8882 6.20118 15.339 6.53898 16.6512C5.64252 17.1665 4.81535 17.8075 4.08346 18.5654ZM4.55551 19.098C5.20512 18.4181 5.93701 17.8335 6.73386 17.3614C7.34882 19.3665 8.30158 20.9906 9.44921 21.9693C7.59567 21.4886 5.89803 20.5012 4.55551 19.098ZM11.6449 22.2638C9.8 22.0299 8.21063 19.9685 7.35315 17.015C8.67835 16.3437 10.1421 15.9669 11.6449 15.9106V22.2638ZM11.6449 15.2047C10.0772 15.2567 8.55276 15.6421 7.17126 16.3177C6.8811 15.1051 6.70787 13.7669 6.68189 12.3551H11.6449V15.2047ZM11.6449 11.6449H6.68189C6.70787 10.2331 6.8811 8.89488 7.17126 7.68228C8.55709 8.35787 10.0815 8.74331 11.6449 8.79528V11.6449ZM11.6449 8.08937C10.1378 8.0374 8.67835 7.6563 7.35315 6.98504C8.21063 4.02717 9.8 1.97008 11.6449 1.73622V8.08937ZM19.9165 5.43465C21.3717 7.18425 22.2031 9.3626 22.2811 11.6449H18.0283C18.0024 10.1118 17.8032 8.66102 17.4654 7.34882C18.3618 6.83347 19.189 6.19252 19.9165 5.43465ZM19.4445 4.90197C18.7949 5.58189 18.063 6.16654 17.2661 6.63858C16.6512 4.63346 15.6984 3.01378 14.5508 2.03071C16.4043 2.51142 18.102 3.49882 19.4445 4.90197ZM12.3551 1.73622C14.2 1.97008 15.7894 4.0315 16.6469 6.98504C15.3217 7.6563 13.8622 8.03307 12.3551 8.08937V1.73622ZM12.3551 8.79528C13.9228 8.74331 15.4472 8.35787 16.8287 7.68228C17.1189 8.89488 17.2921 10.2331 17.3181 11.6449H12.3551V8.79528ZM12.3551 12.3551H17.3181C17.2921 13.7669 17.1189 15.1051 16.8287 16.3177C15.4341 15.6314 13.9087 15.2519 12.3551 15.2047V12.3551ZM12.3551 22.2638V15.9106C13.8622 15.9626 15.3217 16.3437 16.6469 17.015C15.7894 19.9728 14.2 22.0299 12.3551 22.2638ZM14.5508 21.965C15.6984 20.9862 16.6512 19.3665 17.2661 17.3571C18.063 17.8291 18.7949 18.4138 19.4445 19.0937C18.102 20.5012 16.4043 21.4886 14.5508 21.965ZM19.9165 18.5654C19.189 17.8075 18.3618 17.1665 17.4654 16.6512C17.8032 15.339 18.0024 13.8839 18.0283 12.3551H22.2811C22.2031 14.6374 21.3717 16.8157 19.9165 18.5654Z" fill="white" stroke="white" stroke-width="0.6"/>
</svg>
