<svg width="52" height="77" viewBox="0 0 52 77" fill="none" xmlns="http://www.w3.org/2000/svg">
<g id="Group">
<g id="Group_2">
<g id="Group_3">
<g id="Group_4">
<g id="Group_5">
<path id="Vector" d="M0.144531 68.082H1.30013V76.5083H0.144531V68.082Z" fill="white" stroke="#002060" stroke-width="0.050112" stroke-miterlimit="10"/>
<path id="Vector_2" d="M2.45703 68.082H9.19803V69.1413H6.40533V76.5083H5.24973V69.1413H2.45703V68.082Z" fill="white" stroke="#002060" stroke-width="0.050112" stroke-miterlimit="10"/>
<path id="Vector_3" d="M13.1445 68.082H16.6595C16.9484 68.082 17.141 68.082 17.3336 68.082C17.5262 68.082 17.7188 68.082 17.8632 68.1302C18.0077 68.1302 18.1521 68.1783 18.2484 68.2265C18.3447 68.2746 18.4892 68.3228 18.5855 68.3709C19.3077 68.7561 19.6929 69.4302 19.6929 70.3932C19.6929 70.634 19.6929 70.8747 19.6448 71.0673C19.5966 71.2599 19.5485 71.4525 19.4522 71.597C19.3559 71.7414 19.2596 71.8859 19.067 72.0303C18.8744 72.1748 18.7299 72.2711 18.5373 72.3674C18.7299 72.4637 18.9225 72.5118 19.067 72.6081C19.2114 72.7044 19.3077 72.8007 19.404 72.9452C19.5003 73.0896 19.5485 73.2822 19.5485 73.4748C19.5966 73.6674 19.5966 73.9563 19.5966 74.2452V75.2082C19.5966 75.6416 19.6929 76.0749 19.9337 76.412L19.9818 76.5083H18.5373C18.4892 76.2675 18.441 76.0749 18.3929 75.8823C18.3447 75.6897 18.3447 75.4971 18.3447 75.3045V74.2452C18.3447 73.523 18.0558 73.0896 17.5262 72.9933C17.3336 72.9452 16.9965 72.9452 16.5632 72.9452H14.3001V76.5083H13.1445V68.082ZM14.3001 69.0932V71.7896H16.515C16.7076 71.7896 16.9002 71.7896 17.0447 71.7896C17.1891 71.7896 17.2854 71.7896 17.3817 71.7414C17.478 71.7414 17.5743 71.6933 17.6225 71.6933C17.6706 71.6933 17.7669 71.6451 17.8632 71.597C18.2484 71.4044 18.441 71.0192 18.441 70.4414C18.441 70.1525 18.3929 69.9117 18.2484 69.7191C18.1521 69.5265 17.9595 69.3339 17.7188 69.2376C17.478 69.1413 17.0928 69.0932 16.5632 69.0932H14.3001Z" fill="white" stroke="#002060" stroke-width="0.050112" stroke-miterlimit="10"/>
<path id="Vector_4" d="M23.8347 68.082H25.0385L28.0719 76.5083H26.82L25.9533 74.0045H22.7273L21.8124 76.5083H20.5605L23.8347 68.082ZM24.4125 69.3339L23.1125 72.9933H25.6163L24.4125 69.3339Z" fill="white" stroke="#002060" stroke-width="0.050112" stroke-miterlimit="10"/>
<path id="Vector_5" d="M29.1797 68.082H30.4797L34.3317 74.6786V68.082H35.4873V76.5083H34.1873L30.3353 69.8154V76.4601H29.1797V68.082Z" fill="white" stroke="#002060" stroke-width="0.050112" stroke-miterlimit="10"/>
<path id="Vector_6" d="M37.5091 68.0342H38.6647V72.1269L42.6611 68.0342H44.2019L40.7833 71.4528L44.1538 76.4604H42.7574L39.9647 72.2714L38.6165 73.5714V76.5086H37.4609V68.0342H37.5091Z" fill="white" stroke="#002060" stroke-width="0.050112" stroke-miterlimit="10"/>
<path id="Vector_7" d="M44.7311 73.6691H45.9348V73.9099C45.9348 74.0543 45.9348 74.1988 45.9348 74.2951C45.9348 74.3914 45.983 74.4877 45.983 74.584C46.0311 74.6803 46.0793 74.7284 46.1274 74.8247C46.1756 74.8729 46.2719 74.9692 46.3682 75.0173C46.7534 75.3544 47.3793 75.547 48.1497 75.547C48.4386 75.547 48.7275 75.4988 48.9683 75.4507C49.209 75.4025 49.4498 75.3062 49.5942 75.1618C49.7868 75.0655 49.9313 74.921 50.0276 74.7284C50.1239 74.584 50.172 74.3914 50.172 74.1988C50.172 74.1025 50.172 73.958 50.1239 73.8617C50.0757 73.7654 50.0276 73.621 49.9794 73.5247C49.8831 73.4284 49.7868 73.3321 49.6905 73.2358C49.5461 73.1395 49.4016 73.0432 49.209 72.995L46.6089 72.3691C46.0311 72.1765 45.6459 71.8876 45.357 71.5505C45.1163 71.2135 44.9718 70.7801 44.9718 70.2986C44.9718 69.9616 45.02 69.6245 45.1644 69.3356C45.3089 69.0467 45.5015 68.806 45.7904 68.5652C46.0793 68.3245 46.3682 68.18 46.7534 68.0837C47.1386 67.9874 47.5238 67.8911 48.0053 67.8911C48.3423 67.8911 48.6794 67.9393 49.0164 67.9874C49.3535 68.0356 49.5942 68.18 49.8831 68.2763C50.172 68.3726 50.3646 68.5652 50.5091 68.7578C50.6535 68.9504 50.8461 69.143 50.8943 69.3838C50.9424 69.4801 50.9906 69.6245 50.9906 69.769C50.9906 69.9134 51.0387 70.106 51.0387 70.2986V70.5875H49.835C49.835 70.4431 49.835 70.3468 49.835 70.2505C49.835 70.1542 49.835 70.0579 49.7868 70.0097C49.7387 69.9616 49.7387 69.8653 49.7387 69.8171C49.7387 69.769 49.6905 69.7208 49.6424 69.6245C49.5461 69.5282 49.4979 69.4319 49.3535 69.3356C49.209 69.2393 49.1127 69.1912 48.9683 69.143C48.8238 69.0949 48.6794 69.0467 48.4868 68.9986C48.2942 68.9504 48.1497 68.9504 47.9571 68.9504C47.7164 68.9504 47.4756 68.9986 47.283 69.0467C47.0904 69.0949 46.8978 69.1912 46.7052 69.2875C46.5608 69.3838 46.4163 69.5282 46.32 69.6727C46.2237 69.8171 46.1756 70.0097 46.1756 70.2023C46.1756 70.3468 46.1756 70.4431 46.2237 70.5394C46.2237 70.6357 46.2719 70.732 46.3682 70.8283C46.4645 70.9246 46.5126 70.9727 46.6571 71.0209C46.7534 71.069 46.946 71.1653 47.0904 71.2135L49.7868 71.8876C50.798 72.2728 51.3276 72.9469 51.3276 73.958C51.3276 74.2951 51.2795 74.6321 51.135 74.9692C50.9906 75.3062 50.798 75.547 50.5572 75.7877C50.2683 76.0285 49.9313 76.2211 49.5461 76.3655C49.1127 76.51 48.6312 76.5581 48.0534 76.5581C46.946 76.5581 46.0793 76.3174 45.5015 75.884C44.9237 75.4507 44.6348 74.7766 44.6348 73.8617V73.6691H44.7311Z" fill="white" stroke="#002060" stroke-width="0.050112" stroke-miterlimit="10"/>
</g>
</g>
</g>
</g>
<g id="Group_6">
<g id="Group_7">
<path id="Vector_8" d="M6.54975 54.3129V11.7002H2.07181V54.2648C0.916206 54.987 0.0976562 56.3352 0.0976562 57.8279C0.0976562 60.1391 1.9755 62.0169 4.2867 62.0169C6.5979 62.0169 8.47575 60.1391 8.47575 57.8279C8.5239 56.3352 7.70535 55.0352 6.54975 54.3129ZM4.33485 59.9946C3.1311 59.9946 2.16811 59.0316 2.16811 57.8279C2.16811 56.6241 3.1311 55.6611 4.33485 55.6611C5.5386 55.6611 6.5016 56.6241 6.5016 57.8279C6.5016 59.0316 5.49045 59.9946 4.33485 59.9946Z" fill="white"/>
<path id="Vector_9" d="M51.3774 11.2671H22.8726V54.265C21.717 54.9873 20.8984 56.3355 20.8984 57.8281C20.8984 60.1393 22.7763 62.0172 25.0875 62.0172C27.3987 62.0172 29.2765 60.1393 29.2765 57.8281C29.2765 56.3355 28.5061 55.0354 27.3024 54.265V15.745H46.8994V33.5124H36.3064C35.0545 33.5124 33.8989 34.2828 33.4174 35.4384C32.9841 36.4495 33.1285 37.6533 33.8026 38.52L42.9993 55.7577C42.6622 56.3836 42.4696 57.0577 42.4696 57.8281C42.4696 60.1393 44.3475 62.0172 46.6587 62.0172C48.9699 62.0172 50.8477 60.1393 50.8477 57.8281C50.8477 55.6132 49.1143 53.7835 46.9476 53.6391L38.5213 37.9903H51.3292V11.2671H51.3774ZM25.0875 59.9949C23.8837 59.9949 22.9207 59.0319 22.9207 57.8281C22.9207 56.6244 23.8837 55.6614 25.0875 55.6614C26.2912 55.6614 27.2542 56.6244 27.2542 57.8281C27.2542 59.0319 26.2912 59.9949 25.0875 59.9949ZM46.6105 55.6614C47.8143 55.6614 48.7773 56.6244 48.7773 57.8281C48.7773 59.0319 47.8143 59.9949 46.6105 59.9949C45.4068 59.9949 44.4438 59.0319 44.4438 57.8281C44.4438 56.6244 45.4068 55.6614 46.6105 55.6614Z" fill="white"/>
<path id="Vector_10" d="M51.714 5.29631V0.818359H1.73438V5.29631H12.52V54.313C11.3162 55.0352 10.5458 56.3834 10.5458 57.8761C10.5458 60.1873 12.4237 62.0651 14.7349 62.0651C17.0461 62.0651 18.9239 60.1873 18.9239 57.8761C18.9239 56.3834 18.1535 55.0834 16.9498 54.313V5.29631H51.714ZM14.7349 59.9947C13.5311 59.9947 12.5681 59.0317 12.5681 57.8279C12.5681 56.6242 13.5311 55.6612 14.7349 55.6612C15.9386 55.6612 16.9016 56.6242 16.9016 57.8279C16.9016 59.0317 15.9386 59.9947 14.7349 59.9947Z" fill="white"/>
</g>
</g>
</g>
</svg>
