<svg width="47" height="69" viewBox="0 0 47 69" fill="none" xmlns="http://www.w3.org/2000/svg">
<g id="Group">
<g id="Group_2">
<g id="Group_3">
<g id="Group_4">
<g id="Group_5">
<path id="Vector" d="M0.683594 60.5175H1.71079V68.0075H0.683594V60.5175Z" fill="#002060" stroke="#002060" stroke-width="0.044544" stroke-miterlimit="10"/>
<path id="Vector_2" d="M2.73828 60.5175H8.73027V61.4591H6.24788V68.0075H5.22068V61.4591H2.73828V60.5175Z" fill="#002060" stroke="#002060" stroke-width="0.044544" stroke-miterlimit="10"/>
<path id="Vector_3" d="M12.2402 60.5175H15.3646C15.6214 60.5175 15.7926 60.5175 15.9638 60.5175C16.135 60.5175 16.3062 60.5175 16.4346 60.5603C16.563 60.5603 16.6914 60.6031 16.777 60.6459C16.8626 60.6887 16.991 60.7315 17.0766 60.7743C17.7186 61.1167 18.061 61.7159 18.061 62.5719C18.061 62.7859 18.061 62.9999 18.0182 63.1711C17.9754 63.3423 17.9326 63.5135 17.847 63.6419C17.7614 63.7703 17.6758 63.8987 17.5046 64.0271C17.3334 64.1555 17.205 64.2411 17.0338 64.3267C17.205 64.4123 17.3762 64.4551 17.5046 64.5407C17.633 64.6263 17.7186 64.7119 17.8042 64.8403C17.8898 64.9687 17.9326 65.1399 17.9326 65.3111C17.9754 65.4823 17.9754 65.7391 17.9754 65.9959V66.8519C17.9754 67.2371 18.061 67.6223 18.275 67.9219L18.3178 68.0075H17.0338C16.991 67.7935 16.9482 67.6223 16.9054 67.4511C16.8626 67.2799 16.8626 67.1087 16.8626 66.9375V65.9959C16.8626 65.3539 16.6058 64.9687 16.135 64.8831C15.9638 64.8403 15.6642 64.8403 15.279 64.8403H13.2674V68.0075H12.2402V60.5175ZM13.2674 61.4163V63.8131H15.2362C15.4074 63.8131 15.5786 63.8131 15.707 63.8131C15.8354 63.8131 15.921 63.8131 16.0066 63.7703C16.0922 63.7703 16.1778 63.7275 16.2206 63.7275C16.2634 63.7275 16.349 63.6847 16.4346 63.6419C16.777 63.4707 16.9482 63.1283 16.9482 62.6147C16.9482 62.3579 16.9054 62.1439 16.777 61.9727C16.6914 61.8015 16.5202 61.6303 16.3062 61.5447C16.0922 61.4591 15.7498 61.4163 15.279 61.4163H13.2674Z" fill="#002060" stroke="#002060" stroke-width="0.044544" stroke-miterlimit="10"/>
<path id="Vector_4" d="M21.7424 60.5175H22.8124L25.5088 68.0075H24.396L23.6256 65.7819H20.758L19.9448 68.0075H18.832L21.7424 60.5175ZM22.256 61.6303L21.1004 64.8831H23.326L22.256 61.6303Z" fill="#002060" stroke="#002060" stroke-width="0.044544" stroke-miterlimit="10"/>
<path id="Vector_5" d="M26.4922 60.5175H27.6478L31.0718 66.3811V60.5175H32.099V68.0075H30.9434L27.5194 62.0583V67.9647H26.4922V60.5175Z" fill="#002060" stroke="#002060" stroke-width="0.044544" stroke-miterlimit="10"/>
<path id="Vector_6" d="M33.8963 60.475H34.9235V64.113L38.4759 60.475H39.8455L36.8067 63.5138L39.8027 67.965H38.5615L36.0791 64.2414L34.8807 65.397V68.0078H33.8535V60.475H33.8963Z" fill="#002060" stroke="#002060" stroke-width="0.044544" stroke-miterlimit="10"/>
<path id="Vector_7" d="M40.3161 65.4835H41.3861V65.6975C41.3861 65.8259 41.3861 65.9543 41.3861 66.0399C41.3861 66.1255 41.4289 66.2111 41.4289 66.2967C41.4717 66.3823 41.5145 66.4251 41.5573 66.5107C41.6001 66.5535 41.6857 66.6391 41.7713 66.6819C42.1137 66.9815 42.6701 67.1527 43.3549 67.1527C43.6117 67.1527 43.8685 67.1099 44.0825 67.0671C44.2965 67.0243 44.5105 66.9387 44.6389 66.8103C44.8101 66.7247 44.9385 66.5963 45.0241 66.4251C45.1097 66.2967 45.1525 66.1255 45.1525 65.9543C45.1525 65.8687 45.1525 65.7403 45.1097 65.6547C45.0669 65.5691 45.0241 65.4407 44.9813 65.3551C44.8957 65.2695 44.8101 65.1839 44.7245 65.0983C44.5961 65.0127 44.4677 64.9271 44.2965 64.8843L41.9853 64.3279C41.4717 64.1567 41.1293 63.8999 40.8725 63.6003C40.6585 63.3007 40.5301 62.9155 40.5301 62.4875C40.5301 62.1879 40.5729 61.8883 40.7013 61.6315C40.8297 61.3747 41.0009 61.1607 41.2577 60.9467C41.5145 60.7327 41.7713 60.6043 42.1137 60.5187C42.4561 60.4331 42.7985 60.3475 43.2265 60.3475C43.5261 60.3475 43.8257 60.3903 44.1253 60.4331C44.4249 60.4759 44.6389 60.6043 44.8957 60.6899C45.1525 60.7755 45.3237 60.9467 45.4521 61.1179C45.5805 61.2891 45.7517 61.4603 45.7945 61.6743C45.8373 61.7599 45.8801 61.8883 45.8801 62.0167C45.8801 62.1451 45.9229 62.3163 45.9229 62.4875V62.7443H44.8529C44.8529 62.6159 44.8529 62.5303 44.8529 62.4447C44.8529 62.3591 44.8529 62.2735 44.8101 62.2307C44.7673 62.1879 44.7673 62.1023 44.7673 62.0595C44.7673 62.0167 44.7245 61.9739 44.6817 61.8883C44.5961 61.8027 44.5533 61.7171 44.4249 61.6315C44.2965 61.5459 44.2109 61.5031 44.0825 61.4603C43.9541 61.4175 43.8257 61.3747 43.6545 61.3319C43.4833 61.2891 43.3549 61.2891 43.1837 61.2891C42.9697 61.2891 42.7557 61.3319 42.5845 61.3747C42.4133 61.4175 42.2421 61.5031 42.0709 61.5887C41.9425 61.6743 41.8141 61.8027 41.7285 61.9311C41.6429 62.0595 41.6001 62.2307 41.6001 62.4019C41.6001 62.5303 41.6001 62.6159 41.6429 62.7015C41.6429 62.7871 41.6857 62.8727 41.7713 62.9583C41.8569 63.0439 41.8997 63.0867 42.0281 63.1295C42.1137 63.1723 42.2849 63.2579 42.4133 63.3007L44.8101 63.8999C45.7089 64.2423 46.1797 64.8415 46.1797 65.7403C46.1797 66.0399 46.1369 66.3395 46.0085 66.6391C45.8801 66.9387 45.7089 67.1527 45.4949 67.3667C45.2381 67.5807 44.9385 67.7519 44.5961 67.8803C44.2109 68.0087 43.7829 68.0515 43.2693 68.0515C42.2849 68.0515 41.5145 67.8375 41.0009 67.4523C40.4873 67.0671 40.2305 66.4679 40.2305 65.6547V65.4835H40.3161Z" fill="#002060" stroke="#002060" stroke-width="0.044544" stroke-miterlimit="10"/>
</g>
</g>
</g>
</g>
<g id="Group_6">
<g id="Group_7">
<path id="Vector_8" d="M6.37777 48.278V10.4001H2.39738V48.2352C1.37018 48.8772 0.642578 50.0756 0.642578 51.4024C0.642578 53.4568 2.31178 55.126 4.36617 55.126C6.42057 55.126 8.08977 53.4568 8.08977 51.4024C8.13257 50.0756 7.40497 48.92 6.37777 48.278ZM4.40897 53.3284C3.33897 53.3284 2.48298 52.4724 2.48298 51.4024C2.48298 50.3324 3.33897 49.4764 4.40897 49.4764C5.47897 49.4764 6.33497 50.3324 6.33497 51.4024C6.33497 52.4724 5.43617 53.3284 4.40897 53.3284Z" fill="#002060"/>
<path id="Vector_9" d="M46.2252 10.0152H20.8876V48.2356C19.8604 48.8776 19.1328 50.076 19.1328 51.4028C19.1328 53.4572 20.802 55.1264 22.8564 55.1264C24.9108 55.1264 26.58 53.4572 26.58 51.4028C26.58 50.076 25.8952 48.9204 24.8252 48.2356V13.9956H42.2448V29.7888H32.8288C31.716 29.7888 30.6888 30.4736 30.2608 31.5008C29.8756 32.3996 30.004 33.4696 30.6032 34.24L38.778 49.5624C38.4784 50.1188 38.3072 50.718 38.3072 51.4028C38.3072 53.4572 39.9764 55.1264 42.0308 55.1264C44.0852 55.1264 45.7544 53.4572 45.7544 51.4028C45.7544 49.434 44.2136 47.8076 42.2876 47.6792L34.7976 33.7692H46.1824V10.0152H46.2252ZM22.8564 53.3288C21.7864 53.3288 20.9304 52.4728 20.9304 51.4028C20.9304 50.3328 21.7864 49.4768 22.8564 49.4768C23.9264 49.4768 24.7824 50.3328 24.7824 51.4028C24.7824 52.4728 23.9264 53.3288 22.8564 53.3288ZM41.988 49.4768C43.058 49.4768 43.914 50.3328 43.914 51.4028C43.914 52.4728 43.058 53.3288 41.988 53.3288C40.918 53.3288 40.062 52.4728 40.062 51.4028C40.062 50.3328 40.918 49.4768 41.988 49.4768Z" fill="#002060"/>
<path id="Vector_10" d="M46.524 4.708V0.7276H2.09766V4.708H11.6848V48.2783C10.6148 48.9203 9.93005 50.1187 9.93005 51.4455C9.93005 53.4999 11.5992 55.1691 13.6536 55.1691C15.708 55.1691 17.3772 53.4999 17.3772 51.4455C17.3772 50.1187 16.6924 48.9631 15.6224 48.2783V4.708H46.524ZM13.6536 53.3287C12.5836 53.3287 11.7276 52.4727 11.7276 51.4027C11.7276 50.3327 12.5836 49.4767 13.6536 49.4767C14.7236 49.4767 15.5796 50.3327 15.5796 51.4027C15.5796 52.4727 14.7236 53.3287 13.6536 53.3287Z" fill="#002060"/>
</g>
</g>
</g>
</svg>
