<svg width="24" height="24" viewBox="0 0 24 24" fill="none" xmlns="http://www.w3.org/2000/svg">
<g id="Group">
<path id="Layer 2" d="M22.2353 18.2651C23.3921 16.3806 24.003 14.2119 24 12.0006C24.003 9.78919 23.3921 7.62012 22.2353 5.73546L22.2288 5.72494C21.1556 3.97569 19.6518 2.53088 17.8609 1.52859C16.0701 0.526293 14.0522 0 11.9999 0C9.9477 0 7.92975 0.526293 6.13893 1.52859C4.3481 2.53088 2.84423 3.97569 1.77103 5.72494L1.76455 5.73546C0.610633 7.62138 0 9.78936 0 12.0003C0 14.2112 0.610633 16.3792 1.76455 18.2651L1.7713 18.2759C2.84454 20.0251 4.34842 21.4698 6.13923 22.4721C7.93004 23.4743 9.94795 24.0005 12.0001 24.0005C14.0523 24.0005 16.0702 23.4742 17.861 22.4719C19.6518 21.4696 21.1556 20.0249 22.2288 18.2757L22.2353 18.2651ZM13.5338 21.9436C13.3051 22.1643 13.0418 22.3461 12.7544 22.4819C12.5186 22.5939 12.2609 22.652 11.9998 22.652C11.7387 22.652 11.4809 22.5939 11.2451 22.4819C10.6984 22.2026 10.2304 21.7908 9.88387 21.284C9.17623 20.2614 8.65183 19.1234 8.33411 17.921C9.55479 17.8459 10.7767 17.8076 11.9999 17.8062C13.2226 17.8062 14.4446 17.8445 15.666 17.921C15.4901 18.5392 15.2704 19.1441 15.0086 19.731C14.6638 20.5565 14.163 21.3078 13.5338 21.9436ZM1.37165 12.6745H6.21186C6.2434 14.025 6.38981 15.3705 6.64952 16.6962C5.32637 16.8127 4.00663 16.9727 2.69031 17.1762C1.91941 15.7932 1.46878 14.2548 1.37165 12.6745ZM2.69031 6.82463C4.00609 7.0285 5.32628 7.1885 6.65087 7.30464C6.39071 8.63024 6.24402 9.97561 6.2124 11.3261H1.37165C1.46882 9.74586 1.91945 8.20755 2.69031 6.82463ZM10.4661 2.05697C10.6948 1.83627 10.958 1.65445 11.2454 1.51872C11.4812 1.40668 11.739 1.34855 12.0001 1.34855C12.2611 1.34855 12.5189 1.40668 12.7547 1.51872C13.3014 1.79797 13.7695 2.2098 14.116 2.71657C14.8236 3.73924 15.348 4.87719 15.6657 6.07955C14.4451 6.1547 13.2231 6.19299 11.9999 6.19443C10.7773 6.19443 9.55524 6.15613 8.33384 6.07955C8.50974 5.46138 8.72944 4.85652 8.99128 4.26956C9.33608 3.44408 9.83682 2.69284 10.4661 2.05697ZM22.6282 11.3261H17.788C17.7564 9.97556 17.61 8.63011 17.3503 7.30436C18.6735 7.18787 19.9932 7.02787 21.3095 6.82436C22.0805 8.20736 22.5311 9.74577 22.6282 11.3261ZM8.00566 16.5913C7.74201 15.3014 7.59311 13.9907 7.56072 12.6745H16.4394C16.4073 13.9907 16.2587 15.3016 15.9953 16.5916C14.6649 16.5042 13.3331 16.4596 11.9999 16.4578C10.6678 16.4578 9.33637 16.5023 8.00566 16.5913ZM15.9942 7.40926C16.2578 8.69919 16.4067 10.0099 16.4391 11.3261H7.56072C7.59281 10.0099 7.74144 8.69903 8.00485 7.40899C9.3352 7.49637 10.667 7.54095 12.0002 7.54275C13.3323 7.54275 14.6638 7.49816 15.9945 7.40899L15.9942 7.40926ZM17.7875 12.6745H22.6282C22.531 14.2547 22.0804 15.793 21.3095 17.176C19.9936 16.9721 18.6734 16.8121 17.349 16.696C17.6092 15.3704 17.7558 14.025 17.7875 12.6745ZM20.5011 5.58364C19.3505 5.74957 18.1966 5.88099 17.0394 5.97789C16.8314 5.20342 16.5632 4.44641 16.2372 3.71378C15.9394 3.03964 15.5648 2.40215 15.1208 1.814C17.2666 2.47216 19.1497 3.7915 20.5011 5.58364ZM4.46821 4.46831C5.69921 3.23613 7.21367 2.32473 8.87883 1.814C8.85349 1.8469 8.8276 1.87818 8.80279 1.91135C7.94687 3.14342 7.32341 4.52159 6.96314 5.97789C5.80574 5.87991 4.65104 5.74849 3.49903 5.58364C3.7961 5.19005 4.11993 4.81739 4.46821 4.46831ZM3.49903 18.417C4.64942 18.251 5.80331 18.1196 6.96071 18.0227C7.16868 18.7972 7.43692 19.5542 7.76296 20.2868C8.0607 20.961 8.43532 21.5984 8.87937 22.1866C6.73349 21.5284 4.85042 20.2091 3.49903 18.417ZM19.5322 19.5323C18.3012 20.7645 16.7867 21.6759 15.1216 22.1866C15.1469 22.1537 15.1728 22.1224 15.1976 22.0892C16.0535 20.8572 16.677 19.479 17.0373 18.0227C18.1947 18.1207 19.3494 18.2521 20.5014 18.417C20.2043 18.8105 19.8805 19.1832 19.5322 19.5323Z" fill="white"/>
</g>
</svg>
