<svg width="25" height="24" viewBox="0 0 25 24" fill="none" xmlns="http://www.w3.org/2000/svg">
<g id="Frame" clip-path="url(#clip0_1723_13441)">
<g id="Group">
<path id="Vector" d="M15.625 6.5C15.3598 6.5 15.1054 6.39464 14.9179 6.20711C14.7304 6.01957 14.625 5.76522 14.625 5.5V4H10.625V5.5C10.625 5.76522 10.5196 6.01957 10.3321 6.20711C10.1446 6.39464 9.89022 6.5 9.625 6.5C9.35978 6.5 9.10543 6.39464 8.91789 6.20711C8.73036 6.01957 8.625 5.76522 8.625 5.5V4C8.625 2.897 9.522 2 10.625 2H14.625C15.728 2 16.625 2.897 16.625 4V5.5C16.625 5.76522 16.5196 6.01957 16.3321 6.20711C16.1446 6.39464 15.8902 6.5 15.625 6.5ZM13.335 15.38C12.8543 15.5452 12.3311 15.5381 11.855 15.36L0.625 11.62V19.25C0.625 20.77 1.855 22 3.375 22H21.875C23.395 22 24.625 20.77 24.625 19.25V11.62L13.335 15.38Z" fill="white"/>
<path id="Vector_2" d="M24.625 7.75V10.04L12.865 13.96C12.785 13.99 12.705 14 12.625 14C12.545 14 12.465 13.99 12.385 13.96L0.625 10.04V7.75C0.625 6.23 1.855 5 3.375 5H21.875C23.395 5 24.625 6.23 24.625 7.75Z" fill="white"/>
</g>
</g>
<defs>
<clipPath id="clip0_1723_13441">
<rect width="24" height="24" fill="white" transform="translate(0.625)"/>
</clipPath>
</defs>
</svg>
