<svg width="25" height="25" viewBox="0 0 25 25" fill="none" xmlns="http://www.w3.org/2000/svg">
<g id="Frame" clip-path="url(#clip0_1723_13423)">
<g id="Group">
<path id="Vector" d="M23.9078 14.9015L21.7018 13.1765C21.7298 12.9105 21.7538 12.5995 21.7538 12.2705C21.7538 11.9415 21.7307 11.6305 21.7018 11.3645L23.9098 9.63852C24.3198 9.31452 24.4318 8.7395 24.1708 8.26053L21.8768 4.29148C21.6317 3.8435 21.0947 3.61348 20.5498 3.81448L17.9468 4.85947C17.4478 4.49947 16.9247 4.19548 16.3838 3.95248L15.9878 1.1915C15.9227 0.667484 15.4667 0.271484 14.9278 0.271484H10.3278C9.78877 0.271484 9.3338 0.667484 9.26977 1.18348L8.87278 3.9545C8.34877 4.19052 7.8338 4.49052 7.31278 4.86148L4.70278 3.8135C4.21374 3.6245 3.62874 3.83647 3.38574 4.28248L1.08877 8.2565C0.817784 8.71452 0.929769 9.3095 1.34878 9.64152L3.55477 11.3665C3.51975 11.7035 3.50278 11.9965 3.50278 12.2715C3.50278 12.5465 3.5198 12.8395 3.55477 13.1775L1.34677 14.9035C0.936753 15.2285 0.825753 15.8035 1.08675 16.2815L3.38077 20.2505C3.62578 20.6975 4.15777 20.9295 4.70775 20.7275L7.31077 19.6825C7.80877 20.0415 8.33175 20.3455 8.87278 20.5895L9.26878 23.3495C9.33375 23.8755 9.78877 24.2715 10.3288 24.2715H14.9288C15.4678 24.2715 15.9238 23.8755 15.9878 23.3595L16.3847 20.5895C16.9088 20.3525 17.4227 20.0535 17.9447 19.6815L20.5547 20.7295C20.6796 20.7784 20.8126 20.8035 20.9468 20.8035C21.3347 20.8035 21.6917 20.5915 21.8717 20.2615L24.1757 16.2715C24.4318 15.8035 24.3197 15.2285 23.9078 14.9015ZM12.6278 16.2715C10.4218 16.2715 8.62777 14.4775 8.62777 12.2715C8.62777 10.0655 10.4218 8.2715 12.6278 8.2715C14.8337 8.2715 16.6277 10.0655 16.6277 12.2715C16.6277 14.4775 14.8337 16.2715 12.6278 16.2715Z" fill="white"/>
</g>
</g>
<defs>
<clipPath id="clip0_1723_13423">
<rect width="24" height="24" fill="white" transform="translate(0.625 0.271484)"/>
</clipPath>
</defs>
</svg>
