<svg width="24" height="24" viewBox="0 0 24 24" fill="none" xmlns="http://www.w3.org/2000/svg">
<g id="Frame">
<g id="Group">
<path id="Vector" d="M18.2928 12.7612C19.549 12.7612 20.5673 13.767 20.5673 15.0078C20.5673 16.2487 19.549 17.2547 18.2928 17.2547C17.0366 17.2547 16.0182 16.2488 16.0182 15.0081C16.0182 13.7673 17.0366 12.7612 18.2928 12.7612ZM9.11394 18.6425C8.79023 18.0306 8.27956 17.5381 7.65636 17.2368C7.11321 17.702 6.42167 17.9576 5.70657 17.9576C4.99147 17.9576 4.29993 17.702 3.75678 17.2368C3.21081 17.4992 2.74982 17.9102 2.42667 18.4225C2.10352 18.9349 1.93127 19.5279 1.92969 20.1337V21.7561C1.92982 21.8058 1.94962 21.8534 1.98476 21.8886C2.01989 21.9237 2.0675 21.9435 2.11719 21.9436H7.51967V21.7916C7.52037 21.1786 7.665 20.5742 7.9419 20.0273C8.2188 19.4803 8.62025 19.006 9.11394 18.6425ZM5.70664 17.2547C6.96289 17.2547 7.98116 16.2488 7.98116 15.0081C7.98116 13.7673 6.9628 12.7614 5.70664 12.7614C4.45048 12.7614 3.43208 13.7672 3.43208 15.0078C3.43208 16.2485 4.45044 17.2547 5.70664 17.2547ZM5.64903 7.5V5.99859C5.64927 5.89552 5.6903 5.79673 5.76316 5.72383C5.83602 5.65092 5.93479 5.60983 6.03786 5.60953H6.74595C6.95102 5.60954 7.15149 5.54874 7.32201 5.43481C7.49252 5.32088 7.62542 5.15895 7.7039 4.96949C7.78238 4.78003 7.80291 4.57155 7.7629 4.37041C7.72289 4.16928 7.62414 3.98453 7.47912 3.83953L6.97841 3.33905C6.90576 3.26599 6.86499 3.16715 6.86499 3.06412C6.86499 2.9611 6.90576 2.86226 6.97841 2.7892L8.0398 1.72781C8.11285 1.65517 8.21169 1.61439 8.31472 1.61439C8.41774 1.61439 8.51658 1.65517 8.58964 1.72781L9.09041 2.22853C9.2354 2.37363 9.42017 2.47245 9.62135 2.51251C9.82252 2.55256 10.0311 2.53205 10.2206 2.45355C10.4101 2.37506 10.5721 2.24211 10.686 2.07154C10.7999 1.90097 10.8607 1.70044 10.8606 1.49531V0.7875C10.8609 0.684431 10.9019 0.585644 10.9747 0.512736C11.0476 0.439829 11.1464 0.398735 11.2494 0.398438H12.7505C12.8535 0.398735 12.9523 0.439828 13.0252 0.512734C13.098 0.585639 13.139 0.684427 13.1393 0.7875V1.49531C13.1393 1.70038 13.2001 1.90085 13.314 2.07137C13.4279 2.24188 13.5899 2.37478 13.7793 2.45326C13.9688 2.53174 14.1773 2.55227 14.3784 2.51226C14.5795 2.47225 14.7643 2.3735 14.9093 2.22848L15.4098 1.72781C15.4828 1.65518 15.5817 1.61441 15.6847 1.61441C15.7877 1.61441 15.8866 1.65518 15.9597 1.72781L17.021 2.78906C17.0936 2.86212 17.1344 2.96096 17.1344 3.06398C17.1344 3.16701 17.0936 3.26585 17.021 3.33891L16.5203 3.83977C16.3753 3.98478 16.2766 4.16953 16.2366 4.37065C16.1966 4.57177 16.2171 4.78024 16.2956 4.96969C16.374 5.15914 16.5069 5.32107 16.6774 5.435C16.8479 5.54894 17.0484 5.60975 17.2535 5.60977H17.9616C18.0647 5.61007 18.1634 5.65117 18.2363 5.72408C18.3091 5.79698 18.3501 5.89576 18.3504 5.99883V7.49986C18.3501 7.60292 18.3091 7.7017 18.2363 7.77461C18.1634 7.84751 18.0647 7.88861 17.9616 7.88892H17.2535C17.0484 7.88891 16.8479 7.94972 16.6774 8.06364C16.5069 8.17757 16.374 8.33951 16.2955 8.52897C16.217 8.71843 16.1965 8.92691 16.2365 9.12804C16.2765 9.32917 16.3753 9.51392 16.5203 9.65892L17.021 10.1596C17.0936 10.2327 17.1344 10.3315 17.1344 10.4346C17.1344 10.5376 17.0936 10.6364 17.021 10.7095L15.9597 11.7703C15.8866 11.8429 15.7877 11.8837 15.6847 11.8837C15.5817 11.8837 15.4828 11.8429 15.4098 11.7703L14.909 11.2697C14.764 11.1247 14.5793 11.0259 14.3782 10.9859C14.177 10.9459 13.9686 10.9664 13.7791 11.0449C13.5896 11.1234 13.4277 11.2563 13.3138 11.4268C13.1998 11.5973 13.139 11.7978 13.139 12.0029V12.711C13.1388 12.814 13.0978 12.9128 13.0249 12.9857C12.952 13.0586 12.8533 13.0997 12.7502 13.1H11.2492C11.1461 13.0997 11.0474 13.0586 10.9745 12.9857C10.9017 12.9128 10.8606 12.814 10.8604 12.711V12.0029C10.8604 11.7978 10.7996 11.5973 10.6857 11.4268C10.5718 11.2563 10.4098 11.1234 10.2204 11.0449C10.0309 10.9664 9.82242 10.9459 9.62129 10.9859C9.42016 11.0259 9.23541 11.1247 9.09041 11.2697L8.58964 11.7703C8.51658 11.843 8.41774 11.8837 8.31472 11.8837C8.21169 11.8837 8.11285 11.843 8.0398 11.7703L6.97841 10.7089C6.90576 10.6359 6.86499 10.537 6.86499 10.434C6.86499 10.331 6.90576 10.2321 6.97841 10.1591L7.47912 9.65836C7.62413 9.51336 7.72289 9.32861 7.7629 9.12749C7.80291 8.92636 7.78238 8.71789 7.70391 8.52843C7.62544 8.33897 7.49254 8.17703 7.32204 8.0631C7.15153 7.94917 6.95107 7.88836 6.746 7.88836H6.03786C5.93484 7.88806 5.83613 7.84701 5.76328 7.77418C5.69042 7.70134 5.64935 7.60264 5.64903 7.49963V7.5ZM8.86377 6.74911C8.86377 7.36934 9.04768 7.97564 9.39227 8.49134C9.73685 9.00705 10.2266 9.40899 10.7996 9.64634C11.3726 9.88369 12.0032 9.94579 12.6115 9.82479C13.2198 9.70379 13.7786 9.40512 14.2171 8.96655C14.6557 8.52798 14.9544 7.96921 15.0754 7.3609C15.1964 6.75259 15.1343 6.12206 14.8969 5.54904C14.6596 4.97602 14.2576 4.48625 13.7419 4.14167C13.2262 3.79709 12.6199 3.61317 11.9997 3.61317C11.168 3.61317 10.3704 3.94356 9.78226 4.53167C9.19416 5.11977 8.86377 5.91741 8.86377 6.74911ZM20.2426 17.2368C19.6995 17.7019 19.0079 17.9576 18.2928 17.9576C17.5777 17.9576 16.8862 17.7019 16.343 17.2368C15.7197 17.538 15.209 18.0305 14.8852 18.6424C15.3789 19.0059 15.7804 19.4802 16.0573 20.0272C16.3342 20.5742 16.4788 21.1785 16.4795 21.7916V21.9436H21.8822C21.9319 21.9435 21.9795 21.9237 22.0146 21.8885C22.0498 21.8534 22.0696 21.8058 22.0697 21.7561V20.1337C22.0681 19.5279 21.8959 18.9349 21.5727 18.4225C21.2496 17.9101 20.7886 17.4992 20.2426 17.2368ZM11.9997 14.4191C10.7435 14.4191 9.72519 15.4249 9.72519 16.6658C9.72519 17.9066 10.7435 18.9124 11.9997 18.9124C13.256 18.9124 14.2742 17.9065 14.2742 16.6658C14.2742 15.425 13.256 14.4191 11.9997 14.4191ZM13.9497 18.8947C13.4066 19.3598 12.715 19.6155 11.9999 19.6155C11.2848 19.6155 10.5932 19.3598 10.0501 18.8947C9.50411 19.1571 9.04313 19.568 8.71998 20.0804C8.39683 20.5927 8.22458 21.1858 8.22298 21.7915V23.4141C8.22312 23.4637 8.24292 23.5114 8.27805 23.5465C8.31319 23.5816 8.3608 23.6014 8.41048 23.6016H15.5891C15.6388 23.6014 15.6864 23.5816 15.7215 23.5465C15.7567 23.5114 15.7765 23.4637 15.7766 23.4141V21.7916C15.775 21.1859 15.6028 20.5928 15.2797 20.0805C14.9566 19.5681 14.4956 19.1571 13.9497 18.8947Z" fill="white"/>
</g>
</g>
</svg>
