<svg width="24" height="24" viewBox="0 0 24 24" fill="none" xmlns="http://www.w3.org/2000/svg">
<g id="Frame">
<g id="Group">
<path id="Vector" d="M20.1127 11.1715C20.4906 10.053 20.4278 8.83246 19.9372 7.7586C19.4465 6.68474 18.565 5.8383 17.4721 5.39168C16.3792 4.94506 15.1572 4.93185 14.0549 5.35476C12.9526 5.77767 12.053 6.60487 11.5393 7.66788C11.0702 7.40283 10.5469 7.24783 10.0091 7.21458C9.47129 7.18133 8.93295 7.2707 8.43472 7.47594C7.9365 7.68117 7.49141 7.99692 7.13306 8.39934C6.77472 8.80175 6.51247 9.28032 6.36614 9.79891C5.72518 9.62258 5.05392 9.58539 4.3974 9.68984C3.74089 9.79429 3.11431 10.038 2.55973 10.4045C2.00514 10.7711 1.53538 11.252 1.18198 11.8151C0.828568 12.3781 0.599689 13.0102 0.5107 13.669C0.421712 14.3278 0.474673 14.998 0.666029 15.6346C0.857386 16.2713 1.18271 16.8596 1.62017 17.3602C2.05762 17.8607 2.59709 18.2619 3.20236 18.5368C3.80764 18.8117 4.46471 18.9539 5.12948 18.954H19.6243C20.6181 18.9542 21.5747 18.5756 22.2992 17.8952C23.0237 17.2149 23.4616 16.284 23.5239 15.2922C23.5861 14.3003 23.268 13.3219 22.6343 12.5564C22.0005 11.7908 21.0988 11.2956 20.1127 11.1715Z" fill="white"/>
</g>
</g>
</svg>
