<svg width="25" height="24" viewBox="0 0 25 24" fill="none" xmlns="http://www.w3.org/2000/svg">
<g id="Frame">
<g id="Group">
<path id="Vector" d="M20.7898 11.2688C20.5172 11.1821 20.225 11.1775 19.9497 11.2557C19.6745 11.3338 19.4283 11.4912 19.2418 11.7083L16.5006 15.4508C16.4613 15.8116 16.2925 16.1459 16.0255 16.3918C15.7585 16.6377 15.4114 16.7784 15.0486 16.788H9.82109C9.72313 16.788 9.62918 16.7491 9.55991 16.6798C9.49063 16.6105 9.45172 16.5166 9.45172 16.4186C9.45172 16.3207 9.49063 16.2267 9.55991 16.1574C9.62918 16.0882 9.72313 16.0493 9.82109 16.0493H15.0486C15.2526 16.0372 15.4436 15.9451 15.5799 15.7929C15.7163 15.6407 15.7869 15.4407 15.7765 15.2366C15.7951 14.8308 15.6525 14.4341 15.3797 14.1331C15.107 13.832 14.7264 13.6509 14.3207 13.6294H8.26522C7.59089 13.6391 6.93042 13.8223 6.34744 14.1613C5.76446 14.5003 5.27861 14.9838 4.93672 15.5651L3.41797 18.0259L5.45009 22.5L8.05859 21C8.48843 20.7139 8.97052 20.5155 9.47722 20.4161L14.8375 19.755C15.5616 19.6043 16.213 19.2121 16.6851 18.6428L21.3332 12.5025C21.4219 12.3946 21.479 12.2642 21.498 12.1258C21.517 11.9873 21.4973 11.8464 21.4409 11.7185C21.3846 11.5907 21.294 11.4809 21.179 11.4015C21.0641 11.3221 20.9294 11.2762 20.7898 11.2688ZM11.1471 6.43575C12.8338 7.611 15.3621 6.29025 15.3073 4.1895C15.3068 3.47694 15.0238 2.79365 14.5203 2.28948C14.0167 1.7853 13.3338 1.50139 12.6212 1.5C9.96059 1.49775 8.94134 5.01075 11.1471 6.43575ZM20.8675 4.59975C20.7726 1.63575 16.4751 1.6365 16.3825 4.59975C16.4893 7.566 20.7572 7.56788 20.8675 4.59975Z" fill="white"/>
<path id="Vector_2" d="M21.2597 6.81991L20.7756 6.65753C20.3715 7.08149 19.8512 7.3767 19.28 7.50612C18.7088 7.63554 18.1122 7.59342 17.5648 7.38503C17.965 7.9134 18.1805 8.5586 18.1783 9.22141V10.2264C18.1788 10.2498 18.1776 10.2733 18.1746 10.2965H21.7693C21.9868 10.2963 22.1952 10.2099 22.349 10.0561C22.5028 9.90234 22.5892 9.69386 22.5894 9.47641V8.66341C22.5889 8.25554 22.4603 7.85815 22.2217 7.52736C21.983 7.19657 21.6465 6.9491 21.2597 6.81991ZM8.86781 4.59953C8.77556 1.63628 4.47769 1.63591 4.38281 4.59953C4.48181 7.56278 8.77069 7.56391 8.86781 4.59953Z" fill="white"/>
<path id="Vector_3" d="M7.06378 10.2972C7.06079 10.274 7.05953 10.2505 7.06003 10.2271C7.02928 9.28133 7.03003 8.15183 7.66228 7.39695C7.11672 7.59822 6.5242 7.63551 5.95771 7.50425C5.39121 7.37299 4.87548 7.0789 4.47403 6.6582L3.99028 6.82058C3.60335 6.94971 3.26677 7.19715 3.0281 7.52795C2.78942 7.85874 2.66071 8.25617 2.66016 8.66408V9.47708C2.66035 9.69453 2.74682 9.90301 2.90058 10.0568C3.05434 10.2105 3.26283 10.297 3.48028 10.2972H7.06378ZM7.79916 9.22208V10.2271C7.79856 10.2505 7.79982 10.274 7.80291 10.2972C7.81928 10.5306 7.92383 10.7491 8.09535 10.9083C8.26687 11.0675 8.49252 11.1555 8.72653 11.1545H16.5145C16.748 11.1548 16.9729 11.0665 17.1438 10.9074C17.3146 10.7482 17.4186 10.5301 17.4348 10.2972C17.4379 10.274 17.4391 10.2505 17.4385 10.2271V9.22208C17.4367 8.70263 17.2622 8.19853 16.9424 7.78916C16.6227 7.37978 16.1758 7.08838 15.6723 6.96083L14.9298 6.71333C14.2977 7.28842 13.4741 7.60744 12.6196 7.60813C11.765 7.60882 10.9409 7.29115 10.3079 6.71708L9.57291 6.96083C9.06803 7.08708 8.61958 7.3779 8.29838 7.78738C7.97718 8.19686 7.80153 8.70166 7.79916 9.22208Z" fill="white"/>
</g>
</g>
</svg>
